<svg xmlns="http://www.w3.org/2000/svg" width="31.515" height="31.515" viewBox="0 0 31.515 31.515"><path d="M31.515,26.9a.923.923,0,0,0-.923-.923H24.15a50.8,50.8,0,0,1,1.8-9.994A47.417,47.417,0,0,0,27.823,4.617,4.622,4.622,0,0,0,23.205,0H4.617A4.622,4.622,0,0,0,0,4.617a.923.923,0,0,0,.923.923H7.369a50.8,50.8,0,0,1-1.8,9.994A47.417,47.417,0,0,0,3.7,26.9,4.622,4.622,0,0,0,8.31,31.515H26.9A4.622,4.622,0,0,0,31.515,26.9ZM2,3.693a2.77,2.77,0,0,1,5.223,0ZM5.54,26.9A46.152,46.152,0,0,1,7.359,15.981,47.417,47.417,0,0,0,9.233,4.616a4.592,4.592,0,0,0-.927-2.77h14.9a2.773,2.773,0,0,1,2.77,2.77,46.152,46.152,0,0,1-1.819,10.918A51.507,51.507,0,0,0,22.3,25.975H12a.923.923,0,0,0-.923.923,2.77,2.77,0,1,1-5.54,0ZM26.9,29.669H12a4.6,4.6,0,0,0,.834-1.846H29.51A2.774,2.774,0,0,1,26.9,29.669Z" fill="#3c3c3c"/><path d="M180.923,121.846h10.895a.923.923,0,0,0,0-1.846H180.923a.923.923,0,0,0,0,1.846Z" transform="translate(-168.921 -112.614)" fill="#3c3c3c"/><path d="M166.844,181.846h11.021a.923.923,0,0,0,0-1.846H166.844a.923.923,0,1,0,0,1.846Z" transform="translate(-155.708 -168.921)" fill="#3c3c3c"/><path d="M152.786,241.846h10.973a.923.923,0,0,0,0-1.846H152.786a.923.923,0,0,0,0,1.846Z" transform="translate(-142.516 -225.227)" fill="#3c3c3c"/><path d="M137.946,301.846H148.97a.923.923,0,0,0,0-1.846H137.946a.923.923,0,0,0,0,1.846Z" transform="translate(-128.589 -281.534)" fill="#3c3c3c"/></svg>