<svg xmlns="http://www.w3.org/2000/svg" xmlns:xlink="http://www.w3.org/1999/xlink" width="39.674" height="52.631" viewBox="0 0 39.674 52.631">
  <defs>
    <linearGradient id="linear-gradient" x1="0.657" y1="0.179" x2="0.104" y2="1.501" gradientUnits="objectBoundingBox">
      <stop offset="0" stop-color="#9cd6a1"/>
      <stop offset="0.412" stop-color="#4ea561"/>
      <stop offset="1" stop-color="#007320"/>
    </linearGradient>
    <filter id="Path_6" x="18.01" y="0" width="18.802" height="26.415" filterUnits="userSpaceOnUse">
      <feOffset dy="3" input="SourceAlpha"/>
      <feGaussianBlur stdDeviation="2.5" result="blur"/>
      <feFlood flood-opacity="0.239"/>
      <feComposite operator="in" in2="blur"/>
      <feComposite in="SourceGraphic"/>
    </filter>
    <linearGradient id="linear-gradient-2" x1="0.493" y1="0.176" x2="0.522" y2="1.541" gradientUnits="objectBoundingBox">
      <stop offset="0" stop-color="#cfd69c"/>
      <stop offset="0.412" stop-color="#e7a45b"/>
      <stop offset="1" stop-color="#ff7119"/>
    </linearGradient>
    <filter id="Path_7" x="11.957" y="12.269" width="27.717" height="30.134" filterUnits="userSpaceOnUse">
      <feOffset dy="3" input="SourceAlpha"/>
      <feGaussianBlur stdDeviation="2.5" result="blur-2"/>
      <feFlood flood-opacity="0.239"/>
      <feComposite operator="in" in2="blur-2"/>
      <feComposite in="SourceGraphic"/>
    </filter>
    <filter id="Path_10" x="6.37" y="0.932" width="25.716" height="24.996" filterUnits="userSpaceOnUse">
      <feOffset dy="3" input="SourceAlpha"/>
      <feGaussianBlur stdDeviation="2.5" result="blur-3"/>
      <feFlood flood-opacity="0.49"/>
      <feComposite operator="in" in2="blur-3"/>
      <feComposite in="SourceGraphic"/>
    </filter>
    <filter id="Path_11" x="5.388" y="0" width="16.53" height="16.775" filterUnits="userSpaceOnUse">
      <feOffset dy="3" input="SourceAlpha"/>
      <feGaussianBlur stdDeviation="2.5" result="blur-4"/>
      <feFlood flood-opacity="0.49"/>
      <feComposite operator="in" in2="blur-4"/>
      <feComposite in="SourceGraphic"/>
    </filter>
    <filter id="Path_12" x="0" y="2.491" width="28.274" height="50.14" filterUnits="userSpaceOnUse">
      <feOffset dy="3" input="SourceAlpha"/>
      <feGaussianBlur stdDeviation="2.5" result="blur-5"/>
      <feFlood flood-opacity="0.49"/>
      <feComposite operator="in" in2="blur-5"/>
      <feComposite in="SourceGraphic"/>
    </filter>
  </defs>
  <g id="logo-with-text" transform="translate(-442.165 -629.757)">
    <g id="logo" transform="translate(461.622 634.257)">
      <g transform="matrix(1, 0, 0, 1, -19.46, -4.5)" filter="url(#Path_6)">
        <path id="Path_6-2" data-name="Path 6" d="M5701.835,2271.334a5.309,5.309,0,0,0,.678-2.757,8.707,8.707,0,0,0-1.545-3.9l-1.612-2.683a6.22,6.22,0,0,0-.384,4.532,16.024,16.024,0,0,0,1,2.283,7.277,7.277,0,0,1,.781,2.359,3.482,3.482,0,0,1-.077,1.214,8.864,8.864,0,0,1-.456,1.026,7.945,7.945,0,0,0,1.61-2.08Z" transform="translate(-5673.2 -2257.5)" fill-rule="evenodd" fill="url(#linear-gradient)"/>
      </g>
      <g transform="matrix(1, 0, 0, 1, -19.46, -4.5)" filter="url(#Path_7)">
        <path id="Path_7-2" data-name="Path 7" d="M4061.766,5586.244c.277,4.174,8.688,8.879,11.288,7.391,3.656-2.092-.537-13.829-3.678-14.774-2.346-.706-7.868,3.48-7.609,7.383Z" transform="translate(-4042.3 -5562.01)" fill-rule="evenodd" fill="url(#linear-gradient-2)"/>
      </g>
    </g>
    <g id="logo-text" transform="translate(449.665 634.257)">
      <g id="Group_2" data-name="Group 2" transform="translate(0 0)">
        <g id="Group_1" data-name="Group 1" transform="translate(0 0)">
          <g transform="matrix(1, 0, 0, 1, -7.5, -4.5)" filter="url(#Path_10)">
            <path id="Path_10-2" data-name="Path 10" d="M2103.987,2125.141l0-.02v-.594a6.939,6.939,0,0,1,.328-1.609q.274-.821.455-.813c.065.012.068.121.009.327a4.981,4.981,0,0,0-.238,1.259c0,.071,0,.17.011.3h0V2124c0,.024,0,.05,0,.077s0,.035,0,.052v.15a.911.911,0,0,0,.3.778.461.461,0,0,0,.361.08.428.428,0,0,0,.276-.186,1.584,1.584,0,0,0,.162-.342c.044-.131.086-.2.128-.2s.066.048.057.142a3.757,3.757,0,0,1-.148.775,2.75,2.75,0,0,1-.389.882.769.769,0,0,1-.594.362.638.638,0,0,1-.556-.4,2.144,2.144,0,0,1-.16-.994v-.039Zm1.391,3.283a.51.51,0,0,1,0,.265,1.043,1.043,0,0,1-.139.287,1.988,1.988,0,0,1-.131.184c-.045.054-.094.105-.143.157a.755.755,0,0,1-.071.066,1,1,0,0,1-.1.074.419.419,0,0,1-.1.051.067.067,0,0,1-.071-.01c-.1-.089-.21-.172-.313-.261a2.856,2.856,0,0,0-.339-.247c-.022-.014-.031-.029-.029-.042a.14.14,0,0,1,.024-.059l.708-1.078c.02-.031.041-.044.061-.042a.159.159,0,0,1,.066.024c.061.035.123.075.186.119a1.419,1.419,0,0,1,.172.143,1.013,1.013,0,0,1,.139.169.638.638,0,0,1,.086.2Zm-1.938-4.707a6.268,6.268,0,0,1-.964,2.126,1.633,1.633,0,0,1-1.024.715c-.23.006-.345-.059-.345-.194a.412.412,0,0,1,.16-.335,2.829,2.829,0,0,1,.439-.289,4.406,4.406,0,0,0,.6-.412,2.1,2.1,0,0,0,.514-.6,6.5,6.5,0,0,0,.385-.814c.122-.311.209-.466.256-.466.02,0,.031.021.031.063a.726.726,0,0,1-.048.209Zm-3.574-3.542a.5.5,0,0,1,0,.265.965.965,0,0,1-.139.287,1.338,1.338,0,0,1-.131.184c-.045.054-.093.105-.143.157a.61.61,0,0,1-.071.066,1.163,1.163,0,0,1-.1.074.406.406,0,0,1-.1.051c-.033.01-.057.006-.071-.01-.107-.086-.211-.172-.313-.261a2.755,2.755,0,0,0-.341-.247c-.021-.015-.031-.029-.029-.042a.189.189,0,0,1,.024-.062l.708-1.077c.021-.031.041-.044.061-.042a.14.14,0,0,1,.066.024,2.1,2.1,0,0,1,.186.119,1.442,1.442,0,0,1,.172.143.987.987,0,0,1,.139.169.621.621,0,0,1,.087.2Zm1.387,2.116c.023,0,.036.059.04.176a1.588,1.588,0,0,1-.747,1.383,2.889,2.889,0,0,0-.9.574,5.153,5.153,0,0,0-.623.986,1.912,1.912,0,0,1-1.586,1.166h-.119c-.211-.015-.318-.082-.318-.2v-.052q0-.256.549-.584a3.024,3.024,0,0,0,1.2-.636,3.818,3.818,0,0,0,.487-.746,3.032,3.032,0,0,1,.582-.76,3.1,3.1,0,0,1,.968-.582.74.74,0,0,0,.341-.341,1.309,1.309,0,0,1,.135-.383ZM2101,2127.2a.464.464,0,0,1,0,.256,1.036,1.036,0,0,1-.13.276c-.051.075-.1.148-.153.214a1.817,1.817,0,0,1-.17.187.5.5,0,0,1-.1.089.245.245,0,0,1-.074.033.09.09,0,0,1-.054,0,.287.287,0,0,1-.039-.021c-.1-.083-.2-.166-.3-.25a2.656,2.656,0,0,0-.324-.237.1.1,0,0,1-.023-.045.119.119,0,0,1,.023-.051l.671-1.034c.021-.026.041-.039.061-.038a.137.137,0,0,1,.063.026c.059.035.119.073.179.112a1.029,1.029,0,0,1,.166.136,1.062,1.062,0,0,1,.133.161.551.551,0,0,1,.08.191Zm-1.353.084a.062.062,0,0,0,0,.026.048.048,0,0,0,0,.023.13.13,0,0,0,0,.02.088.088,0,0,1,0,.02v.061a.076.076,0,0,1,0,.02.154.154,0,0,0,0,.021l-.013.053a.041.041,0,0,1,0,.013.023.023,0,0,0,0,.012l-.017.054a.261.261,0,0,0-.016.034.259.259,0,0,1-.015.035v.008a.008.008,0,0,0,0,.006l-.023.041a.122.122,0,0,1-.021.036.221.221,0,0,0-.023.033c-.006.006-.009.01-.009.013l-.053.08-.022.031a.14.14,0,0,0-.015.023.1.1,0,0,1-.015.023.367.367,0,0,1-.031.039l-.07.089c-.006.006-.009.01-.009.014a.115.115,0,0,0-.021.021.09.09,0,0,1-.024.023l-.026.025a.1.1,0,0,1-.036.036l-.044.044-.022.018a.352.352,0,0,1-.083.052l-.027.009h-.031a.08.08,0,0,1-.061-.027c-.065-.05-.128-.1-.188-.153s-.123-.105-.191-.155c-.021-.018-.042-.033-.061-.049a2.205,2.205,0,0,0-.181-.128h0a0,0,0,0,1,0,0,.06.06,0,0,1-.023-.039.111.111,0,0,1,.023-.052l.675-1.03a.013.013,0,0,1,0-.009.061.061,0,0,1,.067-.031l.009,0a.011.011,0,0,1,.009,0l.031.013a.046.046,0,0,0,.018.012.026.026,0,0,1,.017.01l.018.009a.07.07,0,0,1,.018.013.144.144,0,0,1,.035.021l.052.033a.379.379,0,0,1,.054.038l.016.013a.826.826,0,0,1,.075.061c.024.021.046.042.071.066l.053.061.041.053a.457.457,0,0,1,.049.089.136.136,0,0,1,.018.039l.012.039a.012.012,0,0,1,0,.009.038.038,0,0,0,0,.013.025.025,0,0,0,0,.018Zm-2.4-5.753c-.021.123-.062.564-.121,1.321a9.863,9.863,0,0,1-.207,1.55,4.2,4.2,0,0,1-.88,1.829,1.277,1.277,0,0,1-.921.208,2.838,2.838,0,0,1,.469-.406,2.481,2.481,0,0,0,1-1.458c.029-.214.056-.53.078-.944s.042-.7.054-.871a4.541,4.541,0,0,1,.234-.827,2.7,2.7,0,0,1,.282-.641c.024-.018.038-.014.041.013a1.242,1.242,0,0,1-.028.225Z" transform="translate(-2081.25 -2114.09)" fill-rule="evenodd"/>
          </g>
          <g transform="matrix(1, 0, 0, 1, -7.5, -4.5)" filter="url(#Path_11)">
            <path id="Path_11-2" data-name="Path 11" d="M1890.38,1925.6c0,.007.008.009.013.011l.141.055.008,0,.025.012.05.024c.014.007.027.013.041.021l.008,0c.031.017.061.035.092.054l.015.01.043.031.015.011.088.071.08.08.022.026.011.014a.951.951,0,0,1,.069.1.745.745,0,0,1,.061.136l.006.019c0,.006,0,.013.005.019l.005.019a.192.192,0,0,0,.009.029l.008,0a.087.087,0,0,1,.023-.031l.1-.11.036-.04.031-.033.007-.008.006-.007.046-.051.014-.015.006-.007,0,0c.011-.013.033-.035.043-.048l.052-.059.006-.007.006-.007.013-.015,0,0,.023-.027.049-.061.047-.064a1.314,1.314,0,0,0,.081-.126l.005-.009c.011-.021.024-.041.035-.061l0-.009.009-.018a.438.438,0,0,0,.024-.061c0-.014.007-.031.01-.045a.942.942,0,0,0,.031-.139.11.11,0,0,0-.009-.052.351.351,0,0,0-.073-.139l-.055-.068c-.011-.014-.041-.045-.054-.058s-.034-.035-.045-.045l-.072-.063c-.021-.018-.054-.041-.076-.058s-.051-.039-.077-.057l-.014-.009c-.031-.021-.063-.042-.1-.061l-.027-.017-.028-.017-.061-.038a.282.282,0,0,0-.052-.029c-.011,0-.022.019-.028.028-.023.033-.048.065-.072.1l-.124.171-.006.008-.012.017-.041.057-.006.008-.012.016-.006.008-.2.267c-.029.039-.061.08-.092.118l-.019.024-.006.008-.054.065,0,0-.006.007c-.01.012-.023.026-.032.038l-.027.031-.013.015,0,0c-.006.007-.022.021-.022.029Z" transform="translate(-1877.49 -1920.08)" fill-rule="evenodd"/>
          </g>
          <g transform="matrix(1, 0, 0, 1, -7.5, -4.5)" filter="url(#Path_12)">
            <path id="Path_12-2" data-name="Path 12" d="M767.3,2452.995a7.77,7.77,0,0,0,.4,2.137,2.592,2.592,0,0,1,.14.363,1.68,1.68,0,0,0,.141.362,4.688,4.688,0,0,0,.318.706c.159.261.317.521.5.766l.214.289c.192.232.367.49.577.708l.609.658a.358.358,0,0,0,.064.067l.031.027.227.22a.782.782,0,0,1,.069.061l.391.373c.133.135.276.238.41.372l1.049.98c.1.075.163.17.255.248.239.2,1.187.96,1.4,1.174l.521.484c.088.088.161.166.251.252.258.249.548.472.8.726.086.086.182.148.26.243a.565.565,0,0,0,.13.13c.047.039.087.085.131.13l.251.251c.255.255.485.537.716.811a13.364,13.364,0,0,1,1.3,1.751c.13.219.265.417.379.646.256.515.48,1.057.694,1.6l.312.954a7,7,0,0,1,.182.842,9.085,9.085,0,0,1-.284,4.031c-.068.271-.137.527-.223.783s-.165.5-.257.749a9.5,9.5,0,0,1-.627,1.385,1.367,1.367,0,0,0-.283.723.181.181,0,0,0,.025-.031l.082-.123a7.759,7.759,0,0,0,.521-.878c.315-.635.575-1.276.839-1.936a12.458,12.458,0,0,0,.4-1.261,8.5,8.5,0,0,0,.314-3.369c-.015-.142-.041-.3-.053-.45-.006-.075-.018-.134-.029-.214a10.156,10.156,0,0,0-.313-1.456,14.16,14.16,0,0,0-.713-1.838l-.521-.987a17.04,17.04,0,0,0-1.478-2.08c-.074-.095-.15-.181-.226-.276l-1.182-1.37c-.227-.294-.724-.735-1.009-1.021-.052-.052-.081-.064-.131-.111l-.643-.623c-.224-.187-.429-.408-.652-.6l-1.881-1.677-.751-.776a1.34,1.34,0,0,1-.123-.139c-.151-.187-.306-.358-.467-.538-.028-.031-.026-.034-.049-.063l-.417-.5a4.94,4.94,0,0,1-.76-1.011c-.165-.333-.352-.669-.5-1.014a6.044,6.044,0,0,1-.391-1.4c-.024-.157-.032-.286-.056-.447l-.026-.5a8.218,8.218,0,0,1,.059-.854,4.915,4.915,0,0,1,.153-.759,3.828,3.828,0,0,1,.247-.666c.1-.209.2-.413.317-.614s.242-.364.371-.542c.037-.052.054-.08.092-.131s.064-.074.1-.123a10.09,10.09,0,0,1,.949-.894,10.726,10.726,0,0,1,1.077-.749c.1-.061.2-.106.3-.168.292-.178.6-.316.91-.468l.6-.311c.1-.053.2-.11.3-.168l.537-.395c.032-.033.069-.085.1-.123a.745.745,0,0,0,.092-.133,2.708,2.708,0,0,0,.146-.319s.364-1.383-.1-.98a5.15,5.15,0,0,1-.6.682l-.29.232a7.144,7.144,0,0,1-.93.6c-.121.061-.232.109-.348.174a10.6,10.6,0,0,0-1.894,1.179c-.092.072-.175.16-.266.237a8.243,8.243,0,0,0-.87.919c-.038.049-.074.094-.116.145l-.323.44a7.428,7.428,0,0,0-.492.793c-.11.223-.25.446-.346.679a6.312,6.312,0,0,0-.561,2.009,8.125,8.125,0,0,0-.061.982Z" transform="translate(-759.8 -2436.86)" fill-rule="evenodd"/>
          </g>
        </g>
      </g>
    </g>
    <rect id="Rectangle_1" data-name="Rectangle 1" width="24" height="39" transform="translate(450 630)" fill="none"/>
  </g>
</svg>
