<svg xmlns="http://www.w3.org/2000/svg" width="55.795" height="122.878" viewBox="0 0 55.795 122.878"><g transform="translate(-2522.299 276.42)"><g transform="translate(2522.299 -276.42)"><g transform="translate(0)"><path d="M2124.075,2137.883l.015-.063v-1.941a22.624,22.624,0,0,1,1.069-5.254q.894-2.681,1.487-2.654c.212.04.222.394.03,1.069a16.221,16.221,0,0,0-.778,4.111c0,.231.013.555.037.981h0v.039q.007.12.015.252-.007.086-.015.17v.489a2.974,2.974,0,0,0,.965,2.541,1.5,1.5,0,0,0,1.177.261,1.4,1.4,0,0,0,.9-.606,5.121,5.121,0,0,0,.527-1.118c.143-.428.281-.645.419-.645s.217.157.187.463a12.245,12.245,0,0,1-.482,2.531,9.028,9.028,0,0,1-1.271,2.881,2.514,2.514,0,0,1-1.94,1.182,2.083,2.083,0,0,1-1.817-1.315,7.015,7.015,0,0,1-.522-3.245v-.128Zm4.54,10.72a1.663,1.663,0,0,1,0,.867,3.342,3.342,0,0,1-.453.936,6.626,6.626,0,0,1-.428.6c-.148.177-.306.344-.468.512a2.327,2.327,0,0,1-.231.217c-.1.084-.217.167-.33.241a1.4,1.4,0,0,1-.335.167.219.219,0,0,1-.231-.034c-.337-.29-.686-.56-1.024-.852a9.451,9.451,0,0,0-1.108-.808c-.071-.045-.1-.094-.094-.138a.457.457,0,0,1,.079-.192l2.31-3.521c.064-.1.133-.143.2-.138a.524.524,0,0,1,.217.079c.2.116.4.246.606.389a4.708,4.708,0,0,1,.561.468,3.352,3.352,0,0,1,.453.552,2.112,2.112,0,0,1,.281.655Zm-6.327-15.369a20.454,20.454,0,0,1-3.146,6.943c-1.172,1.458-2.285,2.24-3.344,2.334-.753.02-1.128-.192-1.128-.635a1.348,1.348,0,0,1,.522-1.093,9.237,9.237,0,0,1,1.433-.945,14.435,14.435,0,0,0,1.95-1.344,6.864,6.864,0,0,0,1.679-1.97,21.157,21.157,0,0,0,1.256-2.659c.4-1.014.684-1.522.837-1.522.064,0,.1.069.1.207a2.371,2.371,0,0,1-.157.684Zm-11.67-11.567a1.619,1.619,0,0,1-.01.867,3.129,3.129,0,0,1-.453.936,4.338,4.338,0,0,1-.428.6c-.148.177-.305.344-.468.512a2.107,2.107,0,0,1-.232.217,4.041,4.041,0,0,1-.33.241,1.306,1.306,0,0,1-.33.167c-.108.034-.187.02-.231-.034-.35-.281-.689-.562-1.024-.852a9.078,9.078,0,0,0-1.113-.808c-.069-.049-.1-.094-.094-.138a.59.59,0,0,1,.079-.2l2.31-3.516c.069-.1.133-.143.2-.138a.467.467,0,0,1,.217.079,6.9,6.9,0,0,1,.606.389,4.708,4.708,0,0,1,.561.468,3.228,3.228,0,0,1,.453.551,2.007,2.007,0,0,1,.285.655Zm4.53,6.909c.074,0,.118.192.128.576a5.185,5.185,0,0,1-2.437,4.516,9.413,9.413,0,0,0-2.945,1.876,16.776,16.776,0,0,0-2.034,3.22q-2.209,3.8-5.18,3.806h-.389c-.689-.049-1.039-.266-1.039-.65v-.172q0-.835,1.792-1.906,3.214-1.182,3.905-2.078a12.432,12.432,0,0,0,1.591-2.437,9.872,9.872,0,0,1,1.9-2.482,10.107,10.107,0,0,1,3.161-1.9,2.41,2.41,0,0,0,1.113-1.113A4.284,4.284,0,0,1,2115.147,2128.576Zm-.822,16.043a1.515,1.515,0,0,1-.01.837,3.413,3.413,0,0,1-.424.9c-.167.246-.33.482-.5.7a5.9,5.9,0,0,1-.556.611,1.6,1.6,0,0,1-.335.291.816.816,0,0,1-.241.108.3.3,0,0,1-.177-.01,1.031,1.031,0,0,1-.128-.069c-.335-.271-.665-.542-.99-.817a8.75,8.75,0,0,0-1.059-.773.305.305,0,0,1-.074-.148.39.39,0,0,1,.074-.167l2.191-3.378c.069-.084.133-.128.2-.123a.446.446,0,0,1,.207.084c.192.113.389.237.586.365a3.367,3.367,0,0,1,.542.443,3.427,3.427,0,0,1,.433.527A1.808,1.808,0,0,1,2114.325,2144.62Zm-4.417.276a.193.193,0,0,0,.015.084.164.164,0,0,0,.015.074.306.306,0,0,0,0,.064.341.341,0,0,1,.01.064v.2a.292.292,0,0,1-.01.064.351.351,0,0,0,0,.069l-.044.172a.111.111,0,0,1,0,.044.077.077,0,0,0-.01.039l-.054.177a.782.782,0,0,0-.054.113.793.793,0,0,1-.049.113.218.218,0,0,1,0,.025.025.025,0,0,0-.01.02l-.074.133a.391.391,0,0,1-.069.118.7.7,0,0,0-.074.108c-.02.02-.03.034-.03.044l-.172.261-.074.1a.468.468,0,0,0-.049.074.273.273,0,0,1-.049.074,1.128,1.128,0,0,1-.1.128l-.227.291c-.02.02-.03.034-.03.044a.454.454,0,0,0-.069.069.277.277,0,0,1-.079.074l-.084.083a.342.342,0,0,1-.118.118l-.143.143-.074.059a1.138,1.138,0,0,1-.271.172l-.089.029h-.1a.265.265,0,0,1-.2-.088c-.212-.163-.419-.33-.615-.5s-.4-.344-.625-.507c-.069-.059-.138-.108-.2-.158-.2-.153-.4-.3-.591-.418a.013.013,0,0,1-.015-.015.2.2,0,0,1-.074-.128.359.359,0,0,1,.074-.172l2.206-3.363a.043.043,0,0,1,.015-.03.2.2,0,0,1,.217-.1l.03.015c.01,0,.02,0,.03.01l.1.044a.14.14,0,0,0,.059.04.094.094,0,0,1,.054.034l.059.03a.228.228,0,0,1,.059.044.463.463,0,0,1,.114.069c.059.04.118.074.172.108a1.249,1.249,0,0,1,.177.123l.054.044a2.628,2.628,0,0,1,.246.2c.079.069.152.138.231.217l.172.2.133.172a1.535,1.535,0,0,1,.158.291.456.456,0,0,1,.059.128l.039.128a.042.042,0,0,1,.015.03.109.109,0,0,0,.015.044.085.085,0,0,0,.015.059Zm-7.834-18.786c-.069.4-.2,1.842-.394,4.313a32.194,32.194,0,0,1-.675,5.062,13.719,13.719,0,0,1-2.871,5.973,3.388,3.388,0,0,1-1.709.68,3.424,3.424,0,0,1-1.3,0,9.329,9.329,0,0,1,1.531-1.325,8.1,8.1,0,0,0,3.26-4.762c.094-.7.182-1.729.256-3.083s.138-2.3.177-2.846a14.757,14.757,0,0,1,.763-2.7,8.764,8.764,0,0,1,.921-2.093q.118-.089.133.044a4.089,4.089,0,0,1-.089.733Z" transform="translate(-2074.319 -2116.471)" fill="#f9f9f9" fill-rule="evenodd"/><path d="M1890.381,1927.912c0,.022.027.029.044.035l.46.179.026.012.083.038c.047.02.116.056.162.079s.09.042.133.068l.027.014c.1.055.2.114.3.176.017.011.032.022.05.033l.141.1.048.035.286.233.261.261.073.086.037.046a3.1,3.1,0,0,1,.226.334,2.458,2.458,0,0,1,.2.443c.007.022.012.042.019.063s.012.044.017.063.011.04.017.063a.573.573,0,0,0,.028.093.066.066,0,0,0,.027.015.279.279,0,0,1,.076-.1l.32-.358c.038-.045.081-.086.119-.131l.1-.107c.01-.009.013-.016.022-.025s.012-.015.021-.024l.15-.168c.014-.016.031-.031.044-.048a.277.277,0,0,1,.021-.023.14.14,0,0,0,.009-.012c.035-.044.106-.114.14-.157l.17-.192.021-.023.021-.024.042-.05.01-.01.074-.088c.053-.067.109-.133.161-.2l.153-.209c.1-.132.182-.271.266-.412.006-.011.012-.019.018-.03.037-.068.077-.134.113-.2.005-.01.01-.02.016-.031s.02-.038.03-.058a1.416,1.416,0,0,0,.079-.2c.015-.045.022-.1.033-.147a3.02,3.02,0,0,0,.1-.453.356.356,0,0,0-.028-.169,1.144,1.144,0,0,0-.24-.453l-.18-.221c-.036-.045-.133-.147-.176-.19s-.11-.115-.146-.146l-.236-.206c-.069-.058-.176-.135-.247-.189s-.166-.127-.253-.185l-.044-.03c-.1-.068-.206-.137-.312-.2l-.089-.055-.092-.056-.2-.123a.936.936,0,0,0-.169-.093c-.036,0-.071.063-.091.091-.076.108-.157.213-.234.32l-.406.557-.02.027c-.014.019-.025.036-.04.055l-.135.186-.02.027c-.013.019-.026.034-.038.053l-.019.025-.65.873c-.095.127-.2.263-.3.385l-.062.077-.021.026-.178.213-.011.013-.021.024c-.033.04-.074.084-.105.125l-.087.1c-.016.016-.028.033-.044.05l-.009.011c-.019.024-.071.068-.071.094Z" transform="translate(-1872.787 -1924.58)" fill="#f9f9f9" fill-rule="evenodd"/><path d="M767.3,2473.7a25.366,25.366,0,0,0,1.294,6.977,8.531,8.531,0,0,1,.457,1.185,5.463,5.463,0,0,0,.459,1.183,15.308,15.308,0,0,0,1.039,2.306c.52.851,1.034,1.7,1.633,2.5l.7.943c.628.759,1.2,1.6,1.883,2.313l1.988,2.148a1.171,1.171,0,0,0,.208.218c.041.037.057.048.1.087l.741.718a2.346,2.346,0,0,1,.224.2l1.276,1.218c.433.441.9.777,1.339,1.216l3.426,3.2c.318.246.531.554.834.808.781.654,3.876,3.136,4.56,3.834l1.7,1.581c.286.288.527.542.819.823.844.812,1.789,1.54,2.616,2.372.281.282.593.482.849.792a1.848,1.848,0,0,0,.426.426c.155.128.284.278.429.423l.821.821c.831.831,1.585,1.753,2.339,2.648a43.647,43.647,0,0,1,4.256,5.719c.425.715.864,1.361,1.236,2.109.836,1.682,1.566,3.453,2.267,5.213l1.02,3.116a22.729,22.729,0,0,1,.595,2.75c.662,5.406.389,7.894-.926,13.162-.221.885-.448,1.722-.728,2.556s-.537,1.632-.838,2.447a31.027,31.027,0,0,1-2.047,4.521,4.463,4.463,0,0,0-.924,2.36.557.557,0,0,0,.083-.1l.269-.4a25.289,25.289,0,0,0,1.7-2.866c1.028-2.073,1.876-4.168,2.74-6.322a40.608,40.608,0,0,0,1.294-4.118,27.761,27.761,0,0,0,1.024-11c-.048-.464-.133-.979-.174-1.468-.021-.246-.059-.438-.095-.7a33.177,33.177,0,0,0-1.023-4.755,46.224,46.224,0,0,0-2.327-6l-1.7-3.224a55.592,55.592,0,0,0-4.826-6.791c-.242-.31-.489-.591-.738-.9l-3.859-4.473c-.742-.961-2.365-2.4-3.294-3.335-.17-.171-.263-.211-.427-.363l-2.1-2.035c-.73-.61-1.4-1.333-2.129-1.946l-6.142-5.475-2.453-2.534a4.414,4.414,0,0,1-.4-.453c-.494-.612-1-1.168-1.526-1.758-.092-.1-.084-.112-.16-.205l-1.36-1.62a16.128,16.128,0,0,1-2.481-3.3c-.538-1.087-1.148-2.185-1.617-3.31a19.744,19.744,0,0,1-1.277-4.562c-.079-.513-.106-.933-.183-1.459l-.086-1.617a26.842,26.842,0,0,1,.193-2.787,16.016,16.016,0,0,1,.5-2.479,12.5,12.5,0,0,1,.806-2.174c.343-.683.642-1.347,1.035-2.006.371-.622.789-1.187,1.21-1.77.122-.169.177-.26.3-.427s.21-.242.331-.4a33,33,0,0,1,3.1-2.919,34.914,34.914,0,0,1,3.516-2.444c.33-.2.647-.348.974-.547.954-.581,1.975-1.031,2.972-1.529l1.966-1.014c.335-.173.641-.36.971-.549l1.753-1.288c.106-.106.225-.278.326-.4a2.441,2.441,0,0,0,.3-.433,8.783,8.783,0,0,0,.477-1.043c0-.01,1.187-4.516-.341-3.2a16.838,16.838,0,0,1-1.971,2.226l-.947.756a23.32,23.32,0,0,1-3.038,1.949c-.394.2-.756.355-1.135.568a34.586,34.586,0,0,0-6.185,3.85c-.3.236-.571.523-.869.773a26.9,26.9,0,0,0-2.841,3c-.124.159-.242.306-.379.473l-1.056,1.437a24.252,24.252,0,0,0-1.606,2.59c-.36.729-.816,1.455-1.13,2.216a20.593,20.593,0,0,0-1.833,6.56,26.579,26.579,0,0,0-.2,3.206Z" transform="translate(-767.299 -2435.718)" fill="#f9f9f9" fill-rule="evenodd"/></g></g></g></svg>