<svg xmlns="http://www.w3.org/2000/svg" xmlns:xlink="http://www.w3.org/1999/xlink" width="33.145" height="71.42" viewBox="0 0 33.145 71.42">
  <defs>
    <linearGradient id="linear-gradient" x1="0.657" y1="0.179" x2="0.104" y2="1.501" gradientUnits="objectBoundingBox">
      <stop offset="0" stop-color="#9cd6a1"/>
      <stop offset="0.412" stop-color="#4ea561"/>
      <stop offset="1" stop-color="#007320"/>
    </linearGradient>
    <linearGradient id="linear-gradient-2" x1="0.493" y1="0.176" x2="0.522" y2="1.541" gradientUnits="objectBoundingBox">
      <stop offset="0" stop-color="#cfd69c"/>
      <stop offset="0.412" stop-color="#e7a45b"/>
      <stop offset="1" stop-color="#ff7119"/>
    </linearGradient>
  </defs>
  <g id="logo" transform="translate(-4061.757 -2261.998)">
    <path id="Path_8" data-name="Path 8" d="M5706.85,2286.33a13.84,13.84,0,0,0,1.768-7.185c-.188-3.675-2.134-7-4.027-10.154l-4.2-6.993a16.2,16.2,0,0,0-1,11.813,41.8,41.8,0,0,0,2.617,5.952,18.96,18.96,0,0,1,2.036,6.148,9.12,9.12,0,0,1-.2,3.165,23.345,23.345,0,0,1-1.188,2.674,20.713,20.713,0,0,0,4.195-5.42Z" transform="translate(-1621.181)" fill-rule="evenodd" fill="url(#linear-gradient)"/>
    <path id="Path_9" data-name="Path 9" d="M4061.78,5598.23c.722,10.878,22.645,23.141,29.42,19.264,9.53-5.454-1.4-36.045-9.587-38.507-6.114-1.839-20.507,9.07-19.832,19.243Z" transform="translate(-0.001 -3284.808)" fill-rule="evenodd" fill="url(#linear-gradient-2)"/>
  </g>
</svg>
