<svg xmlns="http://www.w3.org/2000/svg" width="54.13" height="74.141" viewBox="0 0 54.13 74.141"><g transform="translate(-1579.665 -4359.971)"><path d="M55.88,41.492C55.88,15.9,31.315,2.25,31.315,2.25S6.75,15.9,6.75,41.492c0,18.239,12.482,21.571,19.652,21.985v7.554h9.826V63.462C43.4,63.063,55.88,59.731,55.88,41.492Z" transform="translate(1575.415 4360.581)" fill="none" stroke="#00a651" stroke-width="5"/><path d="M26.773,18.243C26.773,7.813,16.761,2.25,16.761,2.25S6.75,7.813,6.75,18.243c0,7.433,5.087,8.791,8.009,8.96l4-.006C21.686,27.034,26.773,25.677,26.773,18.243Z" transform="translate(1589.968 4380.955)" fill="none" stroke="#00a651" stroke-width="4"/></g></svg>