<svg xmlns="http://www.w3.org/2000/svg" width="68" height="68" viewBox="0 0 68 68"><path d="M68,58.039a1.992,1.992,0,0,0-1.992-1.992h-13.9c.3-7.193,2.116-14.489,3.882-21.564,1.988-7.963,4.044-16.2,4.044-24.522A9.972,9.972,0,0,0,50.07,0H9.961A9.972,9.972,0,0,0,0,9.961a1.992,1.992,0,0,0,1.992,1.992H15.9c-.3,7.192-2.117,14.489-3.883,21.564-1.988,7.963-4.044,16.2-4.044,24.522A9.972,9.972,0,0,0,17.93,68h40.11A9.972,9.972,0,0,0,68,58.039ZM4.326,7.969a5.977,5.977,0,0,1,11.27,0Zm7.627,50.07c0-7.834,2-15.827,3.925-23.557,1.988-7.963,4.044-16.2,4.044-24.522a9.909,9.909,0,0,0-2-5.977H50.07a5.983,5.983,0,0,1,5.977,5.977c0,7.834-2,15.827-3.925,23.557-1.829,7.328-3.714,14.885-4,22.529H25.9a1.992,1.992,0,0,0-1.992,1.992,5.977,5.977,0,0,1-11.953,0Zm46.086,5.977H25.891a9.919,9.919,0,0,0,1.8-3.984H63.673A5.986,5.986,0,0,1,58.039,64.016Z" fill="#00a651"/><path d="M181.992,123.984H205.5a1.992,1.992,0,1,0,0-3.984H181.992a1.992,1.992,0,0,0,0,3.984Z" transform="translate(-156.094 -104.063)" fill="#00a651"/><path d="M167.913,183.984h23.781a1.992,1.992,0,1,0,0-3.984H167.913a1.992,1.992,0,0,0,0,3.984Z" transform="translate(-143.885 -156.094)" fill="#00a651"/><path d="M153.855,243.984h23.677a1.992,1.992,0,0,0,0-3.984H153.855a1.992,1.992,0,0,0,0,3.984Z" transform="translate(-131.694 -208.125)" fill="#00a651"/><path d="M139.015,303.984H162.8a1.992,1.992,0,1,0,0-3.984H139.015a1.992,1.992,0,0,0,0,3.984Z" transform="translate(-118.825 -260.156)" fill="#00a651"/></svg>