<svg xmlns="http://www.w3.org/2000/svg" width="35.484" height="31.548" viewBox="0 0 35.484 31.548"><path d="M33.652.6A.958.958,0,0,0,31.908.523a10.565,10.565,0,0,1-9.235,5.391H17.744A11.832,11.832,0,0,0,5.915,17.743a12.182,12.182,0,0,0,.092,1.263c3.931-2.816,9.6-5.206,17.651-5.206a.986.986,0,1,1,0,1.972C8.17,15.772,1.6,25.266.148,28.833A1.974,1.974,0,0,0,3.8,30.33a16.209,16.209,0,0,1,4.43-5.582A11.8,11.8,0,0,0,19.007,29.5c9.673-.7,16.481-9.377,16.481-20A22.4,22.4,0,0,0,33.652.6Z" transform="translate(-0.004 0.002)" fill="#3c3c3c"/></svg>