<svg xmlns="http://www.w3.org/2000/svg" xmlns:xlink="http://www.w3.org/1999/xlink" width="33.145" height="71.414" viewBox="0 0 33.145 71.414"><defs><linearGradient id="a" x1="0.657" y1="0.179" x2="0.104" y2="1.501" gradientUnits="objectBoundingBox"><stop offset="0" stop-color="#9cd6a1"/><stop offset="0.412" stop-color="#4ea561"/><stop offset="1" stop-color="#007320"/></linearGradient><linearGradient id="b" x1="0.493" y1="0.176" x2="0.522" y2="1.541" gradientUnits="objectBoundingBox"><stop offset="0" stop-color="#cfd69c"/><stop offset="0.412" stop-color="#e7a45b"/><stop offset="1" stop-color="#ff7119"/></linearGradient></defs><g transform="translate(-4061.759 -2262)"><path d="M5706.853,2286.332a13.834,13.834,0,0,0,1.768-7.185c-.188-3.675-2.134-7-4.027-10.154l-4.2-6.993a16.2,16.2,0,0,0-1,11.813,41.84,41.84,0,0,0,2.616,5.952,18.935,18.935,0,0,1,2.036,6.148,9.108,9.108,0,0,1-.2,3.165,23.231,23.231,0,0,1-1.188,2.674A20.712,20.712,0,0,0,5706.853,2286.332Z" transform="translate(-1621.181)" fill-rule="evenodd" fill="url(#a)"/><path d="M4061.783,5598.225c.722,10.878,22.645,23.141,29.42,19.264,9.53-5.454-1.4-36.045-9.587-38.507-6.114-1.839-20.507,9.07-19.832,19.243Z" transform="translate(-0.001 -3284.808)" fill-rule="evenodd" fill="url(#b)"/></g></svg>